<svg xmlns="http://www.w3.org/2000/svg" width="25.335" height="27" viewBox="0 0 25.335 27">
  <g id="Icon_awesome-airbnb" data-name="Icon awesome-airbnb" transform="translate(1.034 1)">
    <path id="Icon_awesome-airbnb-2" data-name="Icon awesome-airbnb" d="M12.725,21.286a11.743,11.743,0,0,1-2.511-4.642,2.7,2.7,0,1,1,5.026,0,12.163,12.163,0,0,1-2.511,4.642Zm7.709,4.086c-2.347,1.022-4.669-.607-6.657-2.816C19.575,15.3,16.35,11.4,12.725,11.4,9.66,11.4,7.973,13.99,8.635,17a15.166,15.166,0,0,0,3.037,5.552C9.858,24.567,8.294,25.5,6.921,25.62a3.731,3.731,0,0,1-3.979-5.083c.843-2.185,6.234-12.9,6.466-13.48.879-1.678,1.426-3.2,3.314-3.2,1.8,0,2.422,1.448,3.369,3.341,2.009,3.941,4.986,9.9,6.408,13.342A3.726,3.726,0,0,1,20.434,25.372Zm2.623-7.6C15.865,2.469,15.466,2.25,12.725,2.25,10.185,2.25,9.1,4.017,8,6.312,2.076,18.16,1.5,19.839,1.452,19.985a5.321,5.321,0,0,0,5,7.265c1.211,0,3.382-.338,6.271-3.482C16,27.327,18.375,27.25,19,27.25a5.32,5.32,0,0,0,5-7.265c0-.217-.939-2.171-.939-2.209Z" transform="translate(-1.089 -2.25)" fill="#fff" stroke="#fff" stroke-width="2"/>
  </g>
</svg>
