<svg xmlns="http://www.w3.org/2000/svg" width="25.563" height="25.001" viewBox="0 0 25.563 25.001">
  <g id="Group_35" data-name="Group 35" transform="translate(-2910.638 -0.01)">
    <path id="Path_98" data-name="Path 98" d="M3847.538,1293.068h-1.405c-.45.063-.654.336-.654.862v2.462l2.059,0h0a1.663,1.663,0,0,0,0-3.326Z" transform="translate(-925.282 -1279.836)" fill="#fff"/>
    <path id="Path_99" data-name="Path 99" d="M3848.744,821.806a1.329,1.329,0,0,0-1.445-1.446h-1.054c-.526.035-.766.3-.766.872V823.3h1.853A1.371,1.371,0,0,0,3848.744,821.806Z" transform="translate(-925.282 -811.962)" fill="#fff"/>
    <path id="Path_100" data-name="Path 100" d="M2936.2,4.81a4.8,4.8,0,0,0-4.8-4.8h-15.961a4.8,4.8,0,0,0-4.8,4.8v15.4q0,.044,0,.087v4.713H2931.4a4.8,4.8,0,0,0,4.8-4.8Zm-14.116,13.818h-4.244V7.667a1.292,1.292,0,0,1,1.245-1.276h2.947c2.319,0,3.816,1.246,3.816,3.178a2.972,2.972,0,0,1-1.012,2.317l-.325.278.372.209h0a2.985,2.985,0,0,1,1.44,2.678C2926.325,17.226,2924.662,18.628,2922.085,18.628Zm6.853,0a1.512,1.512,0,0,1-1.508-1.515h0a1.51,1.51,0,1,1,1.508,1.515Z" fill="#fff"/>
  </g>
</svg>
