<svg xmlns="http://www.w3.org/2000/svg" width="67.024" height="72.18" viewBox="0 0 67.024 72.18">
  <path id="Icon_ionic-ios-mail-open" data-name="Icon ionic-ios-mail-open" d="M68.708,30.9c-.644-.644-25.5-26-25.5-26a8.85,8.85,0,0,0-12.632.016s-24.747,25.215-25.5,26a6.474,6.474,0,0,0-1.692,4.205V69.274A5.171,5.171,0,0,0,8.531,74.43H65.244A5.171,5.171,0,0,0,70.4,69.274V34.957A6.2,6.2,0,0,0,68.708,30.9Zm-3.126,6.815L52.515,51.374a.311.311,0,0,0,0,.451L64.648,64.747a2.091,2.091,0,0,1,0,2.965,2.1,2.1,0,0,1-2.965,0L37.354,41.74a.634.634,0,0,0-.934,0L12.108,67.7a2.1,2.1,0,0,1-2.965,0,2.091,2.091,0,0,1,0-2.965L21.275,51.809a.343.343,0,0,0,0-.451L8.16,37.7c-1.563-1.6-.387-5.768,2.594-5.768H63.02C65.679,31.912,67.145,36.133,65.582,37.712Z" transform="translate(-3.375 -2.25)" fill="#caa987"/>
</svg>
