<svg xmlns="http://www.w3.org/2000/svg" width="21.653" height="304.292" viewBox="0 0 21.653 304.292">
  <g id="Group_5" data-name="Group 5" transform="translate(-949.054 -2809.572)">
    <path id="Path_3" data-name="Path 3" d="M504.761,2851.239,525,2871.478l-20.239,20.239L525,2911.956,504.761,2932.2,525,2952.434l-20.239,20.239L525,2992.912l-20.239,20.239L525,3033.39l-20.239,20.239L525,3073.868l-20.239,20.239L525,3114.346l-20.239,20.239L525,3154.824" transform="translate(445 -41.314)" fill="none" stroke="#caa987" stroke-width="1"/>
    <path id="Path_4" data-name="Path 4" d="M525,2851.239l-20.239,20.239L525,2891.717l-20.239,20.239L525,2932.2l-20.239,20.239L525,2972.673l-20.239,20.239L525,3013.151l-20.239,20.239L525,3053.629l-20.239,20.239L525,3094.107l-20.239,20.239L525,3134.585l-20.239,20.239" transform="translate(445 -41.314)" fill="none" stroke="#caa987" stroke-width="1"/>
  </g>
</svg>
