<svg id="Component_32_1" data-name="Component 32 – 1" xmlns="http://www.w3.org/2000/svg" width="84.159" height="63.16" viewBox="0 0 84.159 63.16">
  <path id="Path_58" data-name="Path 58" d="M-505.841-1086.717c-.086.311-.175.621-.259.933a9.125,9.125,0,0,1-8.808,6.8q-32.979.005-65.958,0a9.14,9.14,0,0,1-8.966-7.13,3.406,3.406,0,0,0-.169-.441v-19.561c.151-.522.278-1.053.456-1.566a9.135,9.135,0,0,1,9.027-6.174q32.854-.006,65.708,0a9.145,9.145,0,0,1,8.65,6.582c.1.335.212.663.318,1Zm-80.667-9.426h31.6q22.306,0,44.613.016c.723,0,1-.153.98-.941-.052-2.546-.015-5.094-.021-7.64-.009-3.652-2-5.655-5.639-5.655q-25.428,0-50.857,0c-5.094,0-10.188-.01-15.282.007a5.014,5.014,0,0,0-5.384,5.326c-.03,2.081-.008,4.163-.009,6.244C-586.508-1097.948-586.508-1097.105-586.508-1096.143Zm77.036,3.55H-586.5c0,1.628-.011,3.209.006,4.791a7.566,7.566,0,0,0,.143,1.386,4.762,4.762,0,0,0,3.934,3.808,11.9,11.9,0,0,0,1.879.138q22.88.011,45.76.005,10.023,0,20.046,0c2.787,0,4.929-1.531,5.217-4.022A53.733,53.733,0,0,0-509.472-1092.593Z" transform="translate(590 1113.856)" fill="#caa987"/>
  <path id="Path_59" data-name="Path 59" d="M-508.48-869.734c-.783.62-1.53,1.214-2.281,1.8-.127.1-.269.182-.4.271-2.651-3.413-3.952-8.767-.151-12.732,1.7-1.778,1.564-2.488-.477-4.334.087-.179.176-.374.274-.564.414-.8.831-1.6,1.243-2.386a5.46,5.46,0,0,1,3.153,6.845,7.425,7.425,0,0,1-1.464,2.618c-1.985,2.153-1.946,4.445-.769,6.9C-509.109-870.8-508.8-870.311-508.48-869.734Z" transform="translate(528.219 930.741)" fill="#caa987"/>
  <path id="Path_60" data-name="Path 60" d="M-428.09-884.762l1.554-2.989a5.514,5.514,0,0,1,3.142,6.876,7.5,7.5,0,0,1-1.471,2.615c-1.953,2.126-1.936,4.395-.789,6.827.254.539.577,1.047.907,1.641l-2.726,2.15c-1.865-2.816-3.1-5.727-2.193-9.08a15.909,15.909,0,0,1,1.63-3.175,3.01,3.01,0,0,1,.429-.5C-425.946-882.287-426.023-883.127-428.09-884.762Z" transform="translate(460.443 930.802)" fill="#caa987"/>
  <path id="Path_61" data-name="Path 61" d="M-340-869.785l-2.633,2.077c-2.472-3.01-4.1-8.528-.389-12.5.168-.18.333-.364.489-.555,1.226-1.5,1.121-2.458-.4-3.677-.106-.085-.217-.163-.4-.3l1.552-3.011a5.515,5.515,0,0,1,3.115,6.976,7.582,7.582,0,0,1-1.458,2.535,5.542,5.542,0,0,0-.892,6.541C-340.738-871.077-340.375-870.493-340-869.785Z" transform="translate(391.811 930.802)" fill="#caa987"/>
  <path id="Path_62" data-name="Path 62" d="M-256.181-869.746l-2.638,2.082c-2.351-2.751-4.068-8.225-.683-12.164.357-.415.73-.819,1.054-1.259a1.878,1.878,0,0,0-.185-2.847c-.261-.273-.566-.5-.888-.787l1.534-2.964a5.5,5.5,0,0,1,3.13,6.948,7.106,7.106,0,0,1-1.4,2.473c-2.053,2.2-1.987,4.544-.763,7.049C-256.785-870.731-256.486-870.275-256.181-869.746Z" transform="translate(323.968 930.75)" fill="#caa987"/>
  <path id="Path_63" data-name="Path 63" d="M-288.885-984.1h-5.327v-3.409h5.327Z" transform="translate(350.532 1011.568)" fill="#caa987"/>
  <path id="Path_64" data-name="Path 64" d="M-248.108-984v-3.384h5.333V-984Z" transform="translate(313.206 1011.463)" fill="#caa987"/>
</svg>
