<svg id="Component_41_1" data-name="Component 41 – 1" xmlns="http://www.w3.org/2000/svg" width="97.245" height="66.76" viewBox="0 0 97.245 66.76">
  <path id="Path_84" data-name="Path 84" d="M-537.455,371.932q22.616,0,45.232,0c2.43,0,3.793,1.533,3.347,3.71-.319,1.56-1.354,2.333-3.25,2.339-4.812.017-9.624.008-14.436.008H-568.6q-7,0-13.994,0c-2.325,0-3.454-1.018-3.444-3.055.01-2.014,1.147-3,3.5-3Q-560,371.928-537.455,371.932Z" transform="translate(586.037 -311.235)" fill="#caa987"/>
  <path id="Path_85" data-name="Path 85" d="M-477.968,341.887c.678-1.686,1.223-3.259,1.962-4.735a1.96,1.96,0,0,1,1.5-.692c5.2-.05,10.4-.031,15.606-.031q12.663,0,25.325.025a1.384,1.384,0,0,1,1.074.479c.727,1.586,1.348,3.221,2.051,4.954Z" transform="translate(502.178 -283.683)" fill="#caa987"/>
  <path id="Path_86" data-name="Path 86" d="M-327.061,315.193h-43.115V310.96h1.7c12.034,0,24.069.014,36.1-.023a2.881,2.881,0,0,1,2.634,1.169C-328.989,313.121-328.087,314.026-327.061,315.193Z" transform="translate(418.535 -263.905)" fill="#caa987"/>
  <path id="Path_87" data-name="Path 87" d="M-560.117,314.867c1.666-3.787,4.727-4.318,8.53-4.227,10.207.242,20.423.082,30.635.082h1.727v4.145Z" transform="translate(565.924 -263.668)" fill="#caa987"/>
  <path id="Path_88" data-name="Path 88" d="M-485.5,101c.576.474,1.4.84,1.651,1.445a3.073,3.073,0,0,1-.151,2.182,10.4,10.4,0,0,1-1.489,1.8,6.9,6.9,0,0,0,.039,8.587c.91,1.152,1.986,2.172,2.94,3.291,4.364,5.113,3.507,11.975-1.521,16.557a2.187,2.187,0,0,1-3.039-.239,1.847,1.847,0,0,1,.054-2.642,17.552,17.552,0,0,0,2.484-3.573,6.769,6.769,0,0,0-1.382-7.51c-.979-1.1-2.04-2.132-2.941-3.29a11.468,11.468,0,0,1,1.724-15.756A9.868,9.868,0,0,1-485.5,101Z" transform="translate(512.464 -101)" fill="#caa987"/>
  <path id="Path_89" data-name="Path 89" d="M-387.555,126.438a7.244,7.244,0,0,0-2.117-5.023c-.931-1.009-1.913-1.982-2.753-3.064a11.516,11.516,0,0,1,1.694-15.772,1.98,1.98,0,0,1,2.9-.014,2.028,2.028,0,0,1,.193,2.914c-.374.513-.857.945-1.256,1.442a6.933,6.933,0,0,0,.036,9.053c.808.984,1.705,1.9,2.574,2.83,4.065,4.369,4.459,11.963-1.605,16.921a1.658,1.658,0,0,1-2.378-.085,1.949,1.949,0,0,1-.412-2.758c.483-.734,1.211-1.322,1.613-2.089.709-1.354,1.252-2.8,1.864-4.2Z" transform="translate(437.638 -101.727)" fill="#caa987"/>
  <path id="Path_90" data-name="Path 90" d="M-291.279,126.7a6.511,6.511,0,0,0-1.635-4.678c-.764-.895-1.6-1.729-2.384-2.606a11.481,11.481,0,0,1,.707-16.592,2.1,2.1,0,0,1,3.133-.175c.913.875.829,1.962-.035,3.161a16.777,16.777,0,0,0-2.426,3.939,6.148,6.148,0,0,0,1.294,6.189c.783.942,1.66,1.805,2.473,2.723,4.646,5.239,4.18,12.28-1.114,16.842-.912.786-1.885,1.071-2.894.165-.908-.814-.921-1.9,0-2.987C-292.671,130.9-291.136,129.162-291.279,126.7Z" transform="translate(362.919 -101.797)" fill="#caa987"/>
  <path id="Path_91" data-name="Path 91" d="M-417.683,292.057h-37.131a29.12,29.12,0,0,1,1.313-3.1c.159-.287.822-.413,1.254-.414q12.3-.035,24.6-.016c2.307,0,4.617.066,6.919-.029,1.2-.05,1.941.248,2.244,1.475A18.233,18.233,0,0,0-417.683,292.057Z" transform="translate(484.212 -246.49)" fill="#caa987"/>
  <path id="Path_92" data-name="Path 92" d="M-268.731,336.452c7.185,0,14.109-.009,21.033.023a1.826,1.826,0,0,1,1.111.533A10.961,10.961,0,0,1-244.846,339c.377.6.849,1.523.633,2.021a2.452,2.452,0,0,1-1.9.908c-3.831.084-7.664.04-11.5.04-2.555,0-5.111-.038-7.664.021a1.469,1.469,0,0,1-1.647-1.083C-267.451,339.49-268.056,338.1-268.731,336.452Z" transform="translate(339.816 -283.704)" fill="#caa987"/>
  <path id="Path_93" data-name="Path 93" d="M-556.767,336.177c-.754,1.8-1.392,3.428-2.132,5.006a1.347,1.347,0,0,1-1.044.493c-6.274.029-12.547.04-18.821-.016a1.944,1.944,0,0,1-1.532-.808c-.191-.5.187-1.225.333-1.85.02-.085.131-.145.182-.227,1.3-2.119,3.124-2.77,5.643-2.664,5.186.218,10.388.066,15.583.066Z" transform="translate(581.623 -283.431)" fill="#caa987"/>
  <path id="Path_94" data-name="Path 94" d="M-288.356,288.713c5.209,0,10.208-.036,15.207.022,1.5.017,2.545.952,4.346,3.423-.489.036-.9.092-1.3.092-5,.006-10.01-.053-15.013.041-1.393.026-2.194-.328-2.5-1.717A13.6,13.6,0,0,0-288.356,288.713Z" transform="translate(355.045 -246.651)" fill="#caa987"/>
  <path id="Path_95" data-name="Path 95" d="M-520.229,288.42c.061.239.095.294.081.333-1.114,3.232-1.114,3.232-4.54,3.232h-13.953c1.541-2.375,3.269-3.768,6.184-3.618C-528.4,288.577-524.318,288.42-520.229,288.42Z" transform="translate(549.259 -246.384)" fill="#caa987"/>
</svg>
