<svg id="Component_38_1" data-name="Component 38 – 1" xmlns="http://www.w3.org/2000/svg" width="77.53" height="74.488" viewBox="0 0 77.53 74.488">
  <path id="Path_77" data-name="Path 77" d="M-987.734,252.588h3.164c2.34,0,2.874.542,2.866,2.909,0,.149,0,.3,0,.447A1.892,1.892,0,0,1-983.784,258c-1.021-.04-1.151.373-1.141,1.235.037,3.1-.006,6.2.007,9.294a2.808,2.808,0,0,1-1.185,2.548,1.159,1.159,0,0,0-.324.828c-.035,1.28,0,2.562-.02,3.843-.013,1.093-.307,1.382-1.384,1.387s-2.145,0-3.217-.014c-.965-.013-1.26-.307-1.276-1.3-.022-1.4-.019-2.8-.031-4.2a.955.955,0,0,0-.1-.235H-1021.7c0,1.294,0,2.565,0,3.836,0,1.684-.2,1.878-1.905,1.879-.864,0-1.728,0-2.592,0-1.079-.008-1.367-.284-1.385-1.386q-.029-1.832,0-3.664a1.19,1.19,0,0,0-.56-1.192,2.384,2.384,0,0,1-.99-2.176c.01-3.188.007-6.375.008-9.563v-1.021c-.528-.033-.968-.036-1.4-.092a1.976,1.976,0,0,1-1.824-1.971c-.022-.416-.014-.834,0-1.251a2.025,2.025,0,0,1,2.17-2.187c1.072-.021,2.146-.034,3.217.006.607.023.8-.2.89-.8a32.729,32.729,0,0,1,2.862-9.909,15.229,15.229,0,0,1,1.515-2.415,5.964,5.964,0,0,1,5.075-2.485q9.562.09,19.126.009a6.228,6.228,0,0,1,5.4,2.749,20.784,20.784,0,0,1,3.2,7.415C-988.458,248.923-988.134,250.707-987.734,252.588Zm-4.933-.05c-.248-1.238-.43-2.354-.7-3.448a19.294,19.294,0,0,0-2.508-6.356,1.923,1.923,0,0,0-1.778-.924q-9.333.044-18.666-.015a1.746,1.746,0,0,0-1.826.973c-.828,1.866-1.66,3.739-2.322,5.668a35.088,35.088,0,0,0-.9,4.1Zm-28.9,12.111h1.159c2.272,0,2.423-.155,2.379-2.44-.023-1.166-.379-1.52-1.576-1.532-1.07-.011-2.14,0-3.21,0-2.352,0-2.49.141-2.427,2.47.029,1.087.422,1.479,1.536,1.5C-1022.994,264.661-1022.28,264.649-1021.567,264.65Zm28.159-3.975c-.714,0-1.429-.015-2.142,0-1.045.027-1.439.43-1.471,1.476q-.015.491,0,.982c.03,1.075.444,1.492,1.542,1.509,1.071.017,2.142.005,3.213.005,2.4,0,2.538-.144,2.48-2.522-.026-1.039-.418-1.432-1.479-1.452C-991.98,260.663-992.694,260.673-993.408,260.674Z" transform="translate(1059.233 -202.65)" fill="#caa987"/>
  <path id="Path_78" data-name="Path 78" d="M-1134.143,270.179h3.983V275h-20.988v-4.8h3.984v-11l-1.761,1.46-3.967-4.571c.272-.254.5-.477.735-.684,1.236-1.074,2.424-2.213,3.731-3.194a3.039,3.039,0,0,0,1.362-2.93c-.123-1.748-.008-3.513-.043-5.269-.013-.622.185-.825.809-.818,2.472.028,4.944.039,7.415-.014a2.436,2.436,0,0,0,1.418-.528c2.954-2.5,5.869-5.049,8.8-7.58.243-.21.5-.4.906-.73.032.557.061.954.077,1.352.072,1.785.118,3.572.223,5.355a1.527,1.527,0,0,1-.609,1.375q-2.814,2.414-5.571,4.892a1.617,1.617,0,0,0-.538,1.031c-.031,7.088-.024,14.176-.021,21.264C-1134.2,269.754-1134.173,269.9-1134.143,270.179Zm-6.454-16.637a3.713,3.713,0,0,0,3.7-3.768,3.769,3.769,0,0,0-3.783-3.709,3.76,3.76,0,0,0-3.693,3.8A3.7,3.7,0,0,0-1140.6,253.543Z" transform="translate(1152.893 -200.587)" fill="#caa987"/>
  <path id="Path_79" data-name="Path 79" d="M-944.773,127.356c-.084-2.106-.079-3.945-.256-5.767a3.28,3.28,0,0,1,1.219-3.1c1.506-1.3,2.873-2.765,4.3-4.156.207-.2.428-.388.764-.689.052.407.1.658.113.911.077,1.9.185,3.808.19,5.712a2.154,2.154,0,0,1-.543,1.382C-940.812,123.519-942.7,125.327-944.773,127.356Z" transform="translate(991.387 -106.798)" fill="#caa987"/>
  <path id="Path_80" data-name="Path 80" d="M-1019.924,194.672c0,.852-.019,1.614,0,2.375.045,1.458.128,2.915.16,4.373a1.347,1.347,0,0,1-.231.9c-1.843,1.856-3.72,3.676-5.83,5.454,0-.364.011-.729,0-1.092-.066-1.875-.155-3.748-.193-5.623a1.433,1.433,0,0,1,.312-.955c1.763-1.774,3.563-3.511,5.355-5.255A1.955,1.955,0,0,1-1019.924,194.672Z" transform="translate(1054.3 -169.762)" fill="#caa987"/>
  <path id="Path_81" data-name="Path 81" d="M-901.827,94.12c-.107-2.6-.213-4.91-.281-7.224a1.081,1.081,0,0,1,.335-.677q1.374-1.4,2.793-2.758a1.206,1.206,0,0,1,2,.005c.744.728,1.459,1.485,2.184,2.233a.929.929,0,0,1,.084,1.425C-897,89.4-899.318,91.659-901.827,94.12Z" transform="translate(958.014 -82.929)" fill="#caa987"/>
  <path id="Path_82" data-name="Path 82" d="M-984.932,167.907c-.08-1.851-.062-3.6-.258-5.322a3.74,3.74,0,0,1,1.462-3.617c1.47-1.234,2.772-2.667,4.328-4.193.042.868.077,1.5.1,2.139.063,1.6.142,3.207.167,4.811a1.431,1.431,0,0,1-.32.948c-1.652,1.668-3.341,3.3-5.022,4.937A3.4,3.4,0,0,1-984.932,167.907Z" transform="translate(1022.604 -138.759)" fill="#caa987"/>
  <path id="Path_83" data-name="Path 83" d="M-1102.489,297.464a1.813,1.813,0,0,1-1.864,1.75,1.824,1.824,0,0,1-1.763-1.945,1.846,1.846,0,0,1,1.916-1.709A1.822,1.822,0,0,1-1102.489,297.464Z" transform="translate(1116.547 -248.157)" fill="#caa987"/>
</svg>
