<svg id="Component_36_1" data-name="Component 36 – 1" xmlns="http://www.w3.org/2000/svg" width="81.085" height="81.123" viewBox="0 0 81.085 81.123">
  <path id="Path_65" data-name="Path 65" d="M37.074-1126.322c.408-.649.892-1.2,1.756-1.092s1.207.723,1.487,1.457c2.13,5.589,4.288,11.169,6.405,16.763.22.583.469.861,1.122.788a18.282,18.282,0,0,1,1.923-.014v-.961q0-12,0-24a10.114,10.114,0,0,1,7.988-10.238.834.834,0,0,0,.5-.6q.053-3.563,0-7.127a.9.9,0,0,0-.436-.615,4.767,4.767,0,0,1-2.582-5.415,4.741,4.741,0,0,1,4.84-3.642c3.564-.007,7.128-.025,10.691,0a21.336,21.336,0,0,1,13.142,4.542,4.737,4.737,0,0,1,1.065,6.67,4.71,4.71,0,0,1-6.742.92,12.61,12.61,0,0,0-5.114-2.385c-.251-.049-.507-.073-.85-.121v5.931c0,1.625,0,1.625,1.54,2.128a10.082,10.082,0,0,1,6.954,9.267c.044,1.341.007,2.685.007,4.017l3.128-.176c.014-.273.038-.551.039-.828,0-2.8,0-5.6,0-8.395a3.129,3.129,0,0,1,3.405-3.393q4.158-.015,8.316,0a3.181,3.181,0,0,1,3.5,3.48c.006,2.746,0,5.491,0,8.237v.956c.51,0,.95,0,1.39,0a4.737,4.737,0,0,1,4.932,4.942c.016,5.253,0,10.507,0,15.76v1.039a22.632,22.632,0,0,0,2.4-.032c.225-.025.493-.4.6-.675q2.488-6.412,4.934-12.841c.537-1.4,1.064-2.809,1.611-4.208a1.6,1.6,0,0,1,2.094-1.148,1.611,1.611,0,0,1,.866,2.285q-3.418,8.935-6.841,17.867a3.752,3.752,0,0,0-.242,1.3c-.014,7.339-.044,14.678.012,22.017.015,1.965-.667,3.305-2.557,3.952H46.9c-1.891-.646-2.573-1.986-2.557-3.952.057-7.339.027-14.678.012-22.017a3.789,3.789,0,0,0-.243-1.3q-2.095-5.547-4.233-11.078c-.919-2.379-1.867-4.747-2.8-7.12Zm70.623,21.128H47.568v22.078H107.7Zm-30.078-26.979v-1.031c0-4.541-2.879-7.439-7.4-7.444-3.379,0-6.758-.016-10.136,0a7.039,7.039,0,0,0-7.055,8.467h.832c1.426,0,2.852-.023,4.276.014a1.567,1.567,0,0,1,1.586,1.626,1.574,1.574,0,0,1-1.6,1.525c-.29.013-.581,0-.871,0H53v3.809c2.832,0,5.6,0,8.373,0,2.373,0,3.617,1.238,3.619,3.6q.007,6.138,0,12.275v.851H77.551v-20.536c-1.624,0-3.181,0-4.737,0a3.611,3.611,0,0,1-.788-.047,1.587,1.587,0,0,1-1.2-1.652,1.585,1.585,0,0,1,1.6-1.455C74.119-1132.194,75.807-1132.173,77.619-1132.173Zm3.2,23.708h21.458v-10.543H80.818Zm-19.038.006v-13.518h-8.8v13.518Zm40.545-13.828c0-.91,0-1.75,0-2.59,0-1.622-.5-2.117-2.133-2.117q-8.664,0-17.328,0a5.449,5.449,0,0,0-.711.024,1.376,1.376,0,0,0-1.319,1.262c-.086,1.12-.023,2.251-.023,3.421Zm-36.37-35.7-.007.142c-2,0-4.009-.018-6.012.007a1.566,1.566,0,0,0-1.567,2.092,1.647,1.647,0,0,0,1.751,1.073c3.323-.011,6.646.033,9.968-.015a15.557,15.557,0,0,1,9.956,3.2,1.568,1.568,0,0,0,2.372-.18A1.609,1.609,0,0,0,81.93-1154a16.38,16.38,0,0,0-7.938-3.5C71.334-1157.833,68.636-1157.839,65.956-1157.989Zm3.108,6.542H61.5v7.585h7.567Zm18.094,14.891h8.8v-3.059h-8.8Zm.016,3.264v3.058h8.769v-3.058Z" transform="translate(-37.074 1161.027)" fill="#caa987"/>
  <path id="Path_66" data-name="Path 66" d="M202.919-841.98c-2.059,0-4.119.01-6.178,0a4.759,4.759,0,0,1-4.9-4.744,4.746,4.746,0,0,1,4.881-4.756q6.218-.019,12.436,0a4.745,4.745,0,0,1,4.858,4.779,4.753,4.753,0,0,1-4.842,4.718C207.091-841.968,205.005-841.981,202.919-841.98Zm.021-6.337c-2,0-4,0-6.007,0-1.2,0-1.936.631-1.916,1.613.02.954.739,1.551,1.9,1.553q6.007.006,12.015,0c1.192,0,1.936-.636,1.917-1.614-.019-.95-.743-1.548-1.9-1.551C206.945-848.321,204.943-848.317,202.94-848.317Z" transform="translate(-162.376 910.429)" fill="#caa987"/>
  <path id="Path_67" data-name="Path 67" d="M180.059-1007.87a1.575,1.575,0,0,1-1.625,1.563,1.585,1.585,0,0,1-1.532-1.58,1.611,1.611,0,0,1,1.55-1.574A1.6,1.6,0,0,1,180.059-1007.87Z" transform="translate(-150.278 1038.32)" fill="#caa987"/>
</svg>
