<svg id="Component_40_1" data-name="Component 40 – 1" xmlns="http://www.w3.org/2000/svg" width="73.434" height="71.813" viewBox="0 0 73.434 71.813">
  <path id="Path_96" data-name="Path 96" d="M93.885,286.392q16.991,0,33.983.024a3.379,3.379,0,0,1,1.92.565,2.133,2.133,0,0,1-.711,3.711c-.721.223-.8.581-.8,1.2q.021,10.259.01,20.518c0,2.2-.748,2.953-2.923,2.953H62.283c-2.018,0-2.825-.8-2.825-2.813q0-10.3.011-20.6c0-.649-.058-1.062-.83-1.27a2.076,2.076,0,0,1-1.446-2.384,2.178,2.178,0,0,1,2.149-1.9c1.255-.03,2.511-.011,3.767-.011ZM68.662,300.829c0-3.046-.014-6.091.012-9.136.006-.626-.182-.861-.82-.837-1.067.04-2.137.026-3.205.005-.5-.01-.724.144-.723.683q.017,9.337,0,18.674c0,.478.163.67.651.661,1.095-.02,2.192-.031,3.285.011.645.024.815-.23.809-.844C68.647,306.974,68.661,303.9,68.662,300.829Zm27.576.08c0-3.071-.013-6.143.011-9.214,0-.622-.187-.862-.823-.839-1.04.038-2.083.033-3.124,0-.575-.017-.836.164-.8.774.039.665.008,1.335.008,2,0,5.448.012,10.9-.013,16.345,0,.7.19.952.9.913a27.257,27.257,0,0,1,2.963,0c.728.04.9-.248.89-.93C96.221,306.945,96.239,303.927,96.237,300.909Zm22.845-.08c0,3.072.012,6.145-.01,9.217,0,.6.149.871.805.843,1.067-.046,2.137-.033,3.205-.006.55.014.74-.177.738-.741q-.025-9.257,0-18.515c0-.612-.228-.789-.8-.771-1.014.031-2.032.047-3.045,0-.714-.036-.913.223-.905.919C119.1,294.791,119.083,297.81,119.083,300.829Zm-41.236.047c0-3.069-.01-6.138.009-9.206,0-.563-.141-.835-.761-.814-1.066.037-2.135.027-3.2,0-.529-.011-.772.148-.771.725q.021,9.287,0,18.573c0,.58.243.736.767.725,1.014-.021,2.031-.051,3.041.01.768.046.937-.268.93-.97C77.829,306.907,77.846,303.891,77.847,300.876Zm4.469.034c0,3.042.01,6.085-.009,9.127,0,.59.131.883.8.853,1.092-.048,2.188-.028,3.282-.014.48.006.671-.189.653-.669-.024-.64-.007-1.281-.007-1.921,0-5.471-.017-10.942.018-16.413.005-.829-.261-1.076-1.056-1.022a19.75,19.75,0,0,1-2.72,0c-.8-.057-.984.266-.975,1.012C82.337,294.878,82.316,297.894,82.316,300.91Zm23.1,0c0-3.069-.011-6.138.01-9.207,0-.6-.137-.884-.8-.854-1.039.047-2.082.034-3.122,0-.567-.016-.812.153-.811.767q.025,9.247,0,18.495c0,.619.246.782.809.768,1.04-.028,2.083-.04,3.122,0,.649.025.809-.24.8-.845C105.408,307,105.421,303.957,105.42,300.914Zm4.473,0c0,3.043.011,6.085-.01,9.127,0,.6.143.877.8.848,1.039-.046,2.082-.029,3.122,0,.553.013.816-.133.814-.761q-.028-9.247,0-18.495c0-.611-.241-.788-.81-.771-.96.029-1.924.056-2.881-.007-.794-.052-1.069.182-1.056,1.017C109.923,294.883,109.894,297.9,109.893,300.915Z" transform="translate(-57.164 -243.552)" fill="#caa987"/>
  <path id="Path_97" data-name="Path 97" d="M174.861,81.195c-4.034,0-8.068.017-12.1-.016-.741-.006-.953.223-.948.954.028,4.221.01,8.442.01,12.663,0,1.784.012,3.568,0,5.352a2.254,2.254,0,0,1-2.417,2.462A2.525,2.525,0,0,1,157.3,99.8a29.625,29.625,0,0,0,.1-4.237c-.01-5.662-.1-11.326-.037-16.987a17.559,17.559,0,0,1,30.549-11.42A17.142,17.142,0,0,1,192.483,78.9c.045,6.224.008,12.449.012,18.674a23.225,23.225,0,0,0,.069,2.479,2.472,2.472,0,0,1-2.305,2.562,2.246,2.246,0,0,1-2.231-2.493q-.019-8.9-.01-17.791c0-1.138,0-1.139-1.135-1.139Zm2.37-8.106,4.963-4.886a9.557,9.557,0,0,0-4.963-1.984Zm-9.564-4.91,4.93,4.947V66.2A10.066,10.066,0,0,0,167.668,68.179Zm-5.577,8.445H169.1l-4.922-5.052A11.568,11.568,0,0,0,162.09,76.625Zm23.647-4.944L180.75,76.63h7.007A11.669,11.669,0,0,0,185.737,71.681Z" transform="translate(-138.214 -61.421)" fill="#caa987"/>
</svg>
