<svg id="Component_33_1" data-name="Component 33 – 1" xmlns="http://www.w3.org/2000/svg" width="73.901" height="73.877" viewBox="0 0 73.901 73.877">
  <path id="Path_68" data-name="Path 68" d="M-1136.161-294.441h-34.42c-2.072,0-2.478-.4-2.479-2.467q0-4.424,0-8.847c0-1.859.491-2.34,2.385-2.345,2.949-.008,5.9-.042,8.847.021a3.442,3.442,0,0,0,2.49-.95c6.847-5.914,13.728-11.788,20.573-17.706a3.737,3.737,0,0,1,2.625-.97q17.149.035,34.3.021c2.393,0,2.67.274,2.671,2.631q0,14.059,0,28.118c0,2.089-.4,2.493-2.452,2.494Q-1118.89-294.44-1136.161-294.441Zm-.077-3.243h12.12c6.828,0,13.655-.018,20.483.02.986.006,1.38-.253,1.317-1.282-.077-1.248-.017-2.5-.018-3.756,0-1.773,0-1.775-1.769-1.776q-8.787,0-17.574,0c-1.516,0-2.282-.53-2.307-1.56s.743-1.592,2.245-1.6c.283,0,.566,0,.848,0,5.777,0,11.555-.02,17.332.02.969.007,1.282-.314,1.245-1.251a41.075,41.075,0,0,1,.005-4.24c.074-1.155-.389-1.431-1.466-1.423-5.858.04-11.716.018-17.574.015a11.167,11.167,0,0,1-1.211-.029,1.44,1.44,0,0,1-1.4-1.542,1.467,1.467,0,0,1,1.41-1.541,9.359,9.359,0,0,1,1.09-.023c5.939,0,11.878-.02,17.816.018.985.006,1.384-.261,1.33-1.289a33.591,33.591,0,0,1,.005-4.118c.085-1.2-.37-1.471-1.509-1.466q-15.695.061-31.391.005a3.214,3.214,0,0,0-2.27.878c-6.876,5.942-13.782,11.85-20.657,17.793a3.8,3.8,0,0,1-2.743.993c-2.544-.059-5.092.043-7.634-.046-1.165-.041-1.46.381-1.4,1.454a38.382,38.382,0,0,1,0,4.361c-.072,1.139.347,1.411,1.441,1.408C-1157.731-297.7-1146.984-297.685-1136.238-297.684Z" transform="translate(1173.062 368.318)" fill="#caa987"/>
  <path id="Path_69" data-name="Path 69" d="M-1156.747-541q7.089,0,14.177,0c1.762,0,2.2.448,2.206,2.233.009,2.141.017,4.282,0,6.422-.013,1.358-.565,1.914-1.919,1.922-3.191.018-6.383-.034-9.572.041a3.329,3.329,0,0,0-1.926.731c-5.394,4.566-10.745,9.182-16.1,13.789-.664.571-1.325,1.1-2.273.672-.916-.417-.9-1.247-.9-2.068q0-10.785,0-21.569c0-1.729.424-2.166,2.134-2.169C-1166.2-541-1161.473-541-1156.747-541Zm-13.038,20.726c.506-.383.8-.584,1.071-.816,4.5-3.863,8.983-7.752,13.525-11.568a4.071,4.071,0,0,1,2.255-.867c2.173-.117,4.357-.041,6.537-.045,2.893,0,2.843-.006,2.883-2.881.016-1.128-.36-1.428-1.457-1.423q-11.746.061-23.492,0c-1.087-.006-1.47.275-1.457,1.415.057,4.964.023,9.93.029,14.895C-1169.891-521.216-1169.836-520.869-1169.785-520.272Z" transform="translate(1173.061 541)" fill="#caa987"/>
  <path id="Path_70" data-name="Path 70" d="M-958.123-453.991c1.979,0,3.96.048,5.937-.02a2.514,2.514,0,0,1,2.586,1.389c.131.249.334.459.463.709,1.022,1.977,2.431,3.33,4.845,3.358,1.185.014,1.637.839,1.628,1.982-.02,2.383.007,4.766-.01,7.149-.011,1.484-.492,2-1.958,1.965a2.305,2.305,0,0,0-2.113,1.034,5.229,5.229,0,0,1-8.283-.083,2.085,2.085,0,0,0-1.907-.947q-4.179.07-8.36,0a1.988,1.988,0,0,0-1.788.934,5.253,5.253,0,0,1-8.371.024,2.173,2.173,0,0,0-2.017-.963c-1.87.045-2.268-.387-2.278-2.263-.008-1.494.027-2.989-.009-4.483a1.932,1.932,0,0,1,1.577-2.111c2.589-.777,5.179-1.555,7.729-2.45a5.235,5.235,0,0,0,1.986-1.409,24.216,24.216,0,0,0,2.1-2.808A2.243,2.243,0,0,1-964.3-454C-962.243-453.974-960.183-453.99-958.123-453.991Zm.046,3.184a11.867,11.867,0,0,1-2.056-.018,5.227,5.227,0,0,0-6.157,3.118,3.724,3.724,0,0,1-2.56,1.839c-2.286.656-4.538,1.429-6.819,2.1-1.43.423-.815,1.553-.885,2.417-.079.983.736.787,1.291.767a1.794,1.794,0,0,1,1.962,1.427,1.991,1.991,0,0,0,1.977,1.5,1.989,1.989,0,0,0,2.074-1.534,1.853,1.853,0,0,1,2.1-1.394q6.057.041,12.114,0a1.905,1.905,0,0,1,2.173,1.463,1.968,1.968,0,0,0,2,1.47,1.966,1.966,0,0,0,2.015-1.451,1.8,1.8,0,0,1,2.042-1.469c.638.044.986-.186.97-.89-.026-1.13.057-2.267-.045-3.388-.031-.336-.512-.894-.8-.9a4.581,4.581,0,0,1-4.029-2.809,4.977,4.977,0,0,0-.973-1.378,2.987,2.987,0,0,0-1.553-.832C-954.842-450.877-956.462-450.807-958.077-450.808Z" transform="translate(1016.565 470.577)" fill="#caa987"/>
</svg>
