<svg id="Component_39_1" data-name="Component 39 – 1" xmlns="http://www.w3.org/2000/svg" width="46.034" height="69.615" viewBox="0 0 46.034 69.615">
  <path id="Path_56" data-name="Path 56" d="M-1093.64-1133.266h4.646c3.173,0,6.347.034,9.52-.023a1.445,1.445,0,0,1,1.56,1q6.832,14.873,13.715,29.723a1.781,1.781,0,0,0,.657.819v-31.439h15.936v69.511c-1.473-.224-2.9-.485-4.339-.65-3.528-.405-7.058-.8-10.594-1.12a1.464,1.464,0,0,1-1.4-.976q-6.566-14.262-13.182-28.5a1.383,1.383,0,0,0-.521-.626v29.849l-15.993,1.906Zm40.633,64.643c-.185-.5-.281-.829-.422-1.135q-4.659-10.112-9.328-20.219-5.679-12.261-11.377-24.514c-2.146-4.634-4.262-9.282-6.417-13.911-.151-.325-.51-.778-.783-.786-2.332-.062-4.667-.036-7.151-.036.7,1.584,1.318,3.033,1.978,4.461q6.708,14.51,13.431,29.015,5.849,12.653,11.665,25.322a1.6,1.6,0,0,0,1.552,1.09c1.74.1,3.474.32,5.21.5C-1054.161-1068.787-1053.674-1068.711-1053.007-1068.623Zm1.237-7.14.14-.047v-53.342h-7.88c-.023.351-.056.631-.056.911q-.006,17.509.007,35.018a3.179,3.179,0,0,0,.3,1.271q3.321,7.268,6.68,14.518C-1052.319-1076.872-1052.04-1076.32-1051.77-1075.763Zm-37.7-45.83-.156.045v53.134c.417-.041.784-.07,1.149-.114,1.983-.242,3.962-.524,5.95-.713.715-.068.877-.346.876-1.013q-.027-16.847-.028-33.694a3.643,3.643,0,0,0-.319-1.46c-1.867-4.1-3.764-8.183-5.655-12.27Q-1088.558-1119.638-1089.47-1121.594Z" transform="translate(1093.64 1133.29)" fill="#caa987"/>
</svg>
