<svg id="Component_34_1" data-name="Component 34 – 1" xmlns="http://www.w3.org/2000/svg" width="62.834" height="81.036" viewBox="0 0 62.834 81.036">
  <path id="Path_57" data-name="Path 57" d="M-486.6-559.8c.958.2,1.93.355,2.872.614a17.024,17.024,0,0,1,9.16,26.622,1.088,1.088,0,0,0-.1,1.394,15.181,15.181,0,0,1-5.915,20.391,1.388,1.388,0,0,0-.8,1.432c.023,7.369,0,14.738.023,22.107a6.766,6.766,0,0,1-2.153,5.21c-.755.711-1.462,1.472-2.207,2.194a3.4,3.4,0,0,1-4.982-.032q-1.222-1.205-2.426-2.428a3.387,3.387,0,0,1,0-5.145,9.828,9.828,0,0,1,.938-.733c-1.116-1.085-2.115-2-2.106-3.532.009-1.506.979-2.407,1.991-3.386-.982-.963-1.989-1.872-1.991-3.4s1.013-2.441,1.994-3.423a6.513,6.513,0,0,1-2.443-3.619c-.242-1.4-.27-2.834-.388-4.2-1.355.292-2.739.647-4.143.878a13.117,13.117,0,0,1-5.913-.483,1.015,1.015,0,0,0-1.171.311c-5.291,5.318-10.609,10.61-15.9,15.929a6.712,6.712,0,0,1-5.079,2.083c-1.037-.016-2.076.014-3.112-.007a3.436,3.436,0,0,1-3.53-3.536c-.017-1.17-.012-2.341,0-3.511a3.435,3.435,0,0,1,3.619-3.6c.366,0,.732,0,1.169,0,.025-1.391-.033-2.735,1.006-3.788s2.372-1.065,3.808-1.011c.088-1.357-.068-2.749,1.016-3.815,1.064-1.047,2.378-1.057,3.855-.972,0-.48,0-.893,0-1.306a6.075,6.075,0,0,1,1.814-4.374c.575-.591,1.14-1.2,1.757-1.741a.923.923,0,0,0,.282-1.106,15.188,15.188,0,0,1,8.284-18.149,15.111,15.111,0,0,1,12.166-.3,1.7,1.7,0,0,0,1.105.048q9.253-3.468,16.566,3.154c.078.071.159.139.295.259a12.477,12.477,0,0,0,2.269-4.762,13.634,13.634,0,0,0-10.426-16.574,13.616,13.616,0,0,0-16.219,11.154c-.11.68-.129,1.374-.179,2.063a1.709,1.709,0,0,1-1.8,1.8,1.711,1.711,0,0,1-1.627-1.892,17.116,17.116,0,0,1,13.806-16.5c.546-.1,1.09-.208,1.635-.312Zm-4.269,68.01a1.589,1.589,0,0,0,.137.257c.6.6,1.2,1.2,1.8,1.811a1.752,1.752,0,0,1-.013,2.886c-.652.643-1.339,1.25-1.9,1.771l2.742,2.893c.7-.736,1.366-1.5,2.1-2.182a3.669,3.669,0,0,0,1.209-2.9c-.029-7.9-.011-15.8-.024-23.7a2.076,2.076,0,0,1,1.3-2.141,11.661,11.661,0,0,0,7.217-10.438,10.7,10.7,0,0,0-1.2-5.692c-1.626.827-3.163,1.656-4.746,2.389a1.84,1.84,0,0,0-1.2,1.171,5.01,5.01,0,0,1-5.02,3.33,5.108,5.108,0,0,1-4.706-3.982,5.072,5.072,0,0,1,2.468-5.57,5.066,5.066,0,0,1,6.042.78c.356.349.652.759,1.093,1.278l4.027-2.3a11.8,11.8,0,0,0-8.426-3.837,11.951,11.951,0,0,0-11.749,8.88,11.6,11.6,0,0,0,5.855,13.45,3.657,3.657,0,0,1,2.311,3.956c-.107,4.109-.409,3.312,2.516,6.241,1.13,1.131,1.148,1.952.017,3.055-.622.607-1.3,1.156-1.952,1.732a1.616,1.616,0,0,1,.216.26c.65.665,1.31,1.322,1.951,2a1.676,1.676,0,0,1,0,2.6C-489.469-493.115-490.171-492.465-490.87-491.789Zm-7.422-43.831a11.438,11.438,0,0,0-5.455,0,11.852,11.852,0,0,0-8.336,15.811,2.135,2.135,0,0,1-.568,2.641c-.844.77-1.613,1.622-2.439,2.413a3.214,3.214,0,0,0-1.045,2.567c.029.8.013,1.6,0,2.394A1.694,1.694,0,0,1-518-507.9c-.95.012-1.9,0-2.937,0,0,1.006.007,1.929,0,2.852a1.728,1.728,0,0,1-1.963,1.96c-.923.01-1.847,0-2.725,0a1.091,1.091,0,0,0-.1.247c-.009.824-.013,1.649-.02,2.473-.011,1.478-.612,2.093-2.076,2.107-.893.009-1.786,0-2.682,0v3.809a21.617,21.617,0,0,1,2.286.013A4.832,4.832,0,0,0-524-496.15c5.363-5.47,10.818-10.851,16.221-16.282a2.036,2.036,0,0,1,2.44-.546,12.56,12.56,0,0,0,2.37.667,10.257,10.257,0,0,0,4.647-.164A15.477,15.477,0,0,1-498.292-535.62Zm10.114,9.856a1.7,1.7,0,0,0,1.686-1.665,1.725,1.725,0,0,0-1.727-1.717,1.738,1.738,0,0,0-1.689,1.68A1.7,1.7,0,0,0-488.178-525.764Z" transform="translate(534 559.799)" fill="#caa987"/>
</svg>
