<svg id="Component_35_1" data-name="Component 35 – 1" xmlns="http://www.w3.org/2000/svg" width="63.949" height="81.113" viewBox="0 0 63.949 81.113">
  <path id="Path_71" data-name="Path 71" d="M146.02-519.369q0,18.991,0,37.983c0,1.909-.581,2.5-2.463,2.5H84.5c-1.824,0-2.43-.611-2.43-2.448q0-38.072,0-76.143c0-1.914.615-2.52,2.555-2.521h58.967c1.784,0,2.426.654,2.426,2.47Q146.021-538.449,146.02-519.369Zm-31.974-19.6c-9.029,0-18.057.012-27.086-.019-.866,0-1.071.259-1.07,1.094q.035,27.086,0,54.172c0,.793.191,1.054,1.024,1.052q27.086-.037,54.172,0c.922,0,1.114-.27,1.113-1.144q-.037-27-.018-53.995c0-1.159,0-1.161-1.141-1.161Zm-28.085-3.936h56.224c0-4.152-.023-8.222.019-12.291.009-.822-.284-.96-1.023-.959q-27.127.027-54.253.016c-.313,0-.626.029-.967.046Z" transform="translate(-82.071 560)" fill="#caa987"/>
  <path id="Path_72" data-name="Path 72" d="M155.094-374.244a22.453,22.453,0,0,1-22.2-23.64,22.17,22.17,0,0,1,24.277-20.963c9.368.955,15.721,6.16,19.1,14.954a1.692,1.692,0,0,0,.98,1.111,4.319,4.319,0,0,1,2.7,4.113c.042,1.356.044,2.716,0,4.072a4.34,4.34,0,0,1-2.742,4.091,1.6,1.6,0,0,0-.928,1.055c-2.962,7.908-8.544,12.843-16.806,14.659C158.042-374.476,156.555-374.419,155.094-374.244Zm.116-40.9a18.553,18.553,0,0,0-18.551,18.415,18.551,18.551,0,0,0,18.5,18.552,18.556,18.556,0,0,0,18.508-18.458A18.557,18.557,0,0,0,155.21-415.142Z" transform="translate(-123.187 445.816)" fill="#caa987"/>
  <path id="Path_73" data-name="Path 73" d="M204.8-510.953c-2.8,0-5.607.019-8.411-.007-1.5-.014-2.417-1.01-2.161-2.259a1.878,1.878,0,0,1,2.056-1.555q6.242-.012,12.483,0c1.505,0,3.01-.007,4.515,0a1.949,1.949,0,0,1,2.164,1.847,1.955,1.955,0,0,1-2.147,1.974c-2.833.027-5.666.008-8.5.008Z" transform="translate(-172.838 523.39)" fill="#caa987"/>
  <path id="Path_74" data-name="Path 74" d="M358-512.445a2.322,2.322,0,0,1-2.341-2.354,2.34,2.34,0,0,1,2.356-2.345,2.413,2.413,0,0,1,2.323,2.318A2.374,2.374,0,0,1,358-512.445Z" transform="translate(-303.565 525.304)" fill="#caa987"/>
  <path id="Path_75" data-name="Path 75" d="M323.068-514.787a2.347,2.347,0,0,1-2.372,2.336,2.356,2.356,0,0,1-2.3-2.407,2.37,2.37,0,0,1,2.326-2.3A2.369,2.369,0,0,1,323.068-514.787Z" transform="translate(-273.397 525.315)" fill="#caa987"/>
  <path id="Path_76" data-name="Path 76" d="M184.688-351.742a15.315,15.315,0,0,1-15.282-15.426,15.326,15.326,0,0,1,15.544-15.259A15.337,15.337,0,0,1,200.1-366.95,15.32,15.32,0,0,1,184.688-351.742Zm-11.464-15.7c-.35,6.058,4.653,11.487,10.947,11.881a11.583,11.583,0,0,0,12.105-11.072,11.559,11.559,0,0,0-10.853-11.95A11.559,11.559,0,0,0,173.223-367.44Z" transform="translate(-152.776 416.238)" fill="#caa987"/>
</svg>
